<svg width="192" height="96" viewBox="0 0 192 96" fill="none" xmlns="http://www.w3.org/2000/svg">
<rect width="192" height="96" fill="#F5F0EC"/>
<path d="M42.7951 46.9393C42.2093 47.5251 42.2093 48.4749 42.7951 49.0607L52.3411 58.6066C52.9268 59.1924 53.8766 59.1924 54.4624 58.6066C55.0482 58.0208 55.0482 57.0711 54.4624 56.4853L45.9771 48L54.4624 39.5147C55.0482 38.9289 55.0482 37.9792 54.4624 37.3934C53.8766 36.8076 52.9268 36.8076 52.3411 37.3934L42.7951 46.9393ZM68.1442 46.5L43.8558 46.5L43.8558 49.5L68.1442 49.5L68.1442 46.5Z" fill="black"/>
<path d="M149.205 49.0607C149.791 48.4749 149.791 47.5251 149.205 46.9393L139.659 37.3934C139.073 36.8076 138.123 36.8076 137.538 37.3934C136.952 37.9792 136.952 38.9289 137.538 39.5147L146.023 48L137.538 56.4853C136.952 57.0711 136.952 58.0208 137.538 58.6066C138.123 59.1924 139.073 59.1924 139.659 58.6066L149.205 49.0607ZM123.856 49.5H148.144V46.5H123.856V49.5Z" fill="black"/>
</svg>
